#!OML:ASF F:\VICON\USERDATA\INSTALL\rory3\rory3.ASF
:FULLY-SPECIFIED
:DEGREES
2813
root -5.2018 17.7064 2.87502 3.40468 -40.8972 2.55705
lowerback 9.98872 1.84205 -3.57129
upperback 1.86966 1.96954 -1.55554
thorax -3.7169 0.994223 0.135635
lowerneck -8.36839 4.69741 -6.26145
upperneck 13.0519 6.18043 7.36672
head 4.83978 3.20167 3.70048
rclavicle 1.20762e-013 -2.66371e-014
rhumerus -14.3985 22.8734 -81.0358
rradius 135.934
rwrist 1.27746
rhand -34.7424 9.87864
rfingers 7.12502
rthumb -7.89614 -19.9539
lclavicle 1.20762e-013 -2.66371e-014
lhumerus -1.61292 -26.1963 84.4895
lradius 135.889
lwrist 6.17897
lhand -18.3525 13.9786
lfingers 7.12502
lthumb 7.93013 43.8099
rfemur -9.47604 10.4056 10.7774
rtibia 49.9614
rfoot -22.5339 -8.98895
rtoes -27.2417
lfemur -19.7664 2.52596 -8.659
ltibia 47.4078
lfoot -16.9298 -3.61641
ltoes -26.8703
2814
root -5.20517 17.6054 2.82619 3.42876 -40.5568 2.73337
lowerback 9.86521 1.7096 -3.7428
upperback 1.77117 1.77587 -1.65798
thorax -3.74711 0.901576 0.152671
lowerneck -8.52573 4.84842 -6.24955
upperneck 12.783 6.39206 7.45267
head 4.76597 3.3167 3.73282
rclavicle -7.69297e-014 1.27222e-014
rhumerus -14.0731 22.7907 -81.1407
rradius 135.743
rwrist 1.97666
rhand -35.1803 9.45342
rfingers 7.12502
rthumb -8.31881 -20.3628
lclavicle -7.69297e-014 1.27222e-014
lhumerus -1.6768 -25.6096 84.0646
lradius 136.128
lwrist 5.67067
lhand -18.7216 13.8327
lfingers 7.12502
lthumb 7.57388 43.6771
rfemur -9.1288 10.5517 10.7048
rtibia 49.7072
rfoot -24.4116 -8.43416
rtoes -29.9973
lfemur -20.0706 2.87568 -8.74206
ltibia 47.4616
lfoot -18.4029 -3.13918
ltoes -24.5428
2815
root -5.20565 17.513 2.77476 3.32603 -40.3006 2.92108
lowerback 9.96243 1.69466 -3.87564
upperback 1.75566 1.72864 -1.80874
thorax -3.81505 0.879435 0.0735187
lowerneck -8.67042 4.86463 -6.21722
upperneck 12.2605 6.42425 7.56577
head 4.62503 3.34816 3.75338
rclavicle 8.38871e-014 -7.95139e-015
rhumerus -13.7049 22.4007 -81.2375
rradius 135.745
rwrist 2.27182
rhand -35.0264 9.77577
rfingers 7.12502
rthumb -8.17028 -20.0463
lclavicle 8.38871e-014 -7.95139e-015
lhumerus -1.22151 -24.9755 83.3995
lradius 136.179
lwrist 5.75062
lhand -18.3968 13.3076
lfingers 7.12502
lthumb 7.88739 43.1405
rfemur -8.83986 10.8837 10.6551
rtibia 49.5609
rfoot -26.0449 -8.09757
rtoes -28.0672
lfemur -20.5566 3.35414 -8.89204
ltibia 48.0503
lfoot -19.5559 -2.99796
ltoes -24.3566
2816
root -5.19826 17.4318 2.72258 3.19112 -40.0641 2.92754
lowerback 10.2663 1.7394 -3.79976
upperback 1.78541 1.77254 -1.93922
thorax -3.9476 0.899844 -0.118965
lowerneck -8.77012 4.78895 -5.92782
upperneck 11.7683 6.32742 7.39964
head 4.51459 3.30794 3.63992
rclavicle -1.06549e-013 2.46493e-014
rhumerus -13.4764 21.8881 -81.343
rradius 135.847
rwrist 2.3791
rhand -34.5703 10.8333
rfingers 7.12502
rthumb -7.73 -19.0054
lclavicle -1.06549e-013 2.46493e-014
lhumerus -0.637708 -24.6129 82.8813
lradius 136.135
lwrist 5.71685
lhand -18.2142 12.8346
lfingers 7.12502
lthumb 8.06361 42.6608
rfemur -8.57165 11.1274 10.7847
rtibia 49.5427
rfoot -27.0801 -8.41162
rtoes -29.4068
lfemur -21.1873 4.13165 -8.89836
ltibia 49.0717
lfoot -20.3076 -3.27339
ltoes -24.2759
2817
root -5.18395 17.3631 2.66778 3.16132 -39.8491 2.78095
lowerback 10.6178 1.75635 -3.65372
upperback 1.81183 1.79175 -1.93936
thorax -4.11103 0.908373 -0.213758
lowerneck -8.75703 4.74982 -5.81883
upperneck 11.2258 6.30836 7.16646
head 4.36069 3.29212 3.53367
rclavicle -2.5345e-014 -3.1408e-014
rhumerus -13.3685 21.652 -81.3653
rradius 135.979
rwrist 2.45391
rhand -34.5406 11.7712
rfingers 7.12502
rthumb -7.70137 -18.0686
lclavicle -2.5345e-014 -3.1408e-014
lhumerus -0.365164 -24.2008 82.7382
lradius 136.225
lwrist 5.83693
lhand -18.5666 12.5566
lfingers 7.12502
lthumb 7.72345 42.3956
rfemur -8.49067 11.1413 11.0513
rtibia 49.6597
rfoot -27.7937 -9.0947
rtoes -29.8261
lfemur -22.0609 4.86997 -8.73163
ltibia 50.4243
lfoot -20.3656 -3.62512
ltoes -20.6833
2818
root -5.1657 17.3023 2.6139 3.07658 -39.6973 2.64117
lowerback 11.0117 1.77345 -3.53023
upperback 1.88789 1.81128 -1.88296
thorax -4.2482 0.916575 -0.23755
lowerneck -8.68397 4.74184 -5.87
upperneck 10.6411 6.35319 6.90395
head 4.17557 3.29925 3.4445
rclavicle -3.44891e-014 -3.97569e-015
rhumerus -13.2411 21.5799 -81.3393
rradius 136.134
rwrist 2.30774
rhand -34.7476 11.9784
rfingers 7.12502
rthumb -7.90118 -17.8539
lclavicle -3.44891e-014 -3.97569e-015
lhumerus -0.290267 -23.7533 82.7681
lradius 136.396
lwrist 6.04368
lhand -18.9664 13.0477
lfingers 7.12502
lthumb 7.3376 42.9005
rfemur -8.48269 11.1 11.3039
rtibia 49.8645
rfoot -28.4048 -9.50407
rtoes -29.2606
lfemur -23.0438 5.55355 -8.56526
ltibia 52.0802
lfoot -19.7975 -3.77973
ltoes -17.8663
2819
root -5.14506 17.2599 2.56734 2.84512 -39.6327 2.55315
lowerback 11.421 1.81654 -3.35461
upperback 2.06241 1.87073 -1.88159
thorax -4.2878 0.940966 -0.352433
lowerneck -8.66912 4.75497 -5.81058
upperneck 10.1038 6.41338 6.61142
head 4.01869 3.31772 3.33306
rclavicle -2.19657e-014 6.75868e-015
rhumerus -13.0873 21.5858 -81.4249
rradius 136.304
rwrist 2.0855
rhand -34.9059 11.1375
rfingers 7.12502
rthumb -8.05399 -18.689
lclavicle -2.19657e-014 6.75868e-015
lhumerus 0.0349277 -23.2455 82.7121
lradius 136.312
lwrist 6.43091
lhand -19.167 13.3257
lfingers 7.12502
lthumb 7.14399 43.1851
rfemur -8.31801 11.3152 11.4257
rtibia 50.0752
rfoot -29.4976 -8.17364
rtoes -26.4259
lfemur -24.0696 6.23748 -8.44249
ltibia 54.016
lfoot -18.8797 -4.01435
ltoes -20.0543
2820
root -5.11882 17.2367 2.53122 2.67824 -39.7018 2.45431
lowerback 11.6752 1.89072 -3.06673
upperback 2.25363 1.9947 -1.87888
thorax -4.22073 0.995266 -0.533788
lowerneck -8.64207 4.74384 -5.81759
upperneck 9.6166 6.44177 6.34864
head 3.87403 3.31988 3.24137
rclavicle 1.35174e-014 4.77083e-015
rhumerus -13.0339 21.6978 -81.5567
rradius 136.498
rwrist 1.66398
rhand -35.0242 10.3149
rfingers 7.12502
rthumb -8.16816 -19.5073
lclavicle 1.35174e-014 4.77083e-015
lhumerus 0.309643 -22.7023 82.8012
lradius 136.106
lwrist 6.88806
lhand -19.2649 13.1107
lfingers 7.12502
lthumb 7.04942 42.9733
rfemur -8.31308 10.9747 11.5738
rtibia 50.2261
rfoot -29.6849 -8.98957
rtoes -27.8161
lfemur -25.2797 6.93822 -8.27147
ltibia 56.1444
lfoot -17.4839 -4.93192
ltoes -20.0549
2821
root -5.08923 17.2259 2.50694 2.586 -39.9272 2.30643
lowerback 11.8113 2.01055 -2.71504
upperback 2.36312 2.19558 -1.8121
thorax -4.1736 1.08906 -0.694261
lowerneck -8.29795 4.71177 -6.02418
upperneck 9.12035 6.43691 6.19947
head 3.66583 3.30177 3.2045
rclavicle -1.71551e-013 2.90226e-014
rhumerus -13.2291 21.8535 -81.7265
rradius 136.699
rwrist 0.956538
rhand -34.9249 10.3767
rfingers 7.12502
rthumb -8.0723 -19.4492
lclavicle -1.71551e-013 2.90226e-014
lhumerus 0.101619 -22.2791 83.2104
lradius 136.018
lwrist 7.1909
lhand -19.3598 13.1006
lfingers 7.12502
lthumb 6.95781 42.9662
rfemur -8.30891 10.6972 11.655
rtibia 50.2529
rfoot -29.9915 -9.25246
rtoes -25.7779
lfemur -26.5113 7.73306 -8.02708
ltibia 58.3373
lfoot -15.8037 -5.40845
ltoes -22.485
2822
root -5.06311 17.2463 2.49905 2.66354 -40.2555 1.95224
lowerback 11.832 2.14209 -2.176
upperback 2.47151 2.44343 -1.69144
thorax -4.05683 1.20496 -0.906527
lowerneck -7.8339 4.70878 -6.2873
upperneck 8.6484 6.45776 6.14317
head 3.43887 3.29871 3.20311
rclavicle -3.54831e-014 1.78906e-014
rhumerus -13.4264 22.0593 -81.884
rradius 136.786
rwrist 0.240116
rhand -34.5328 10.9022
rfingers 7.12502
rthumb -7.69382 -18.9379
lclavicle -3.54831e-014 1.78906e-014
lhumerus -0.2391 -21.9086 83.7028
lradius 135.958
lwrist 7.39323
lhand -19.5063 13.4873
lfingers 7.12502
lthumb 6.81638 43.3576
rfemur -8.30872 10.4692 11.8309
rtibia 50.1097
rfoot -30.1595 -9.03515
rtoes -26.2433
lfemur -27.6932 8.43983 -7.58644
ltibia 60.4022
lfoot -13.8495 -5.58262
ltoes -25.6113
2823
root -5.03641 17.2803 2.50412 2.9389 -40.7341 1.38863
lowerback 11.7231 2.2835 -1.41522
upperback 2.68046 2.7343 -1.58786
thorax -3.74882 1.34082 -1.25815
lowerneck -7.89578 4.72917 -6.32475
upperneck 8.51123 6.51275 5.97353
head 3.40921 3.31824 3.1582
rclavicle 1.54058e-015 2.18663e-015
rhumerus -13.2814 22.3311 -82.027
rradius 136.79
rwrist -0.62976
rhand -33.4343 10.9697
rfingers 7.12502
rthumb -6.63347 -18.9064
lclavicle 1.54058e-015 2.18663e-015
lhumerus -0.416872 -21.576 84.0728
lradius 135.842
lwrist 7.40902
lhand -19.4987 13.7185
lfingers 7.12502
lthumb 6.82372 43.5886
rfemur -8.31663 10.2043 12.1275
rtibia 49.7464
rfoot -29.8523 -9.07525
rtoes -26.8118
lfemur -28.8446 9.06905 -6.9172
ltibia 62.223
lfoot -11.4195 -5.93447
ltoes -27.5264
2824
root -5.0086 17.316 2.51832 3.16453 -41.3665 0.945544
lowerback 11.6109 2.44837 -0.752423
upperback 2.74913 3.03902 -1.50751
thorax -3.58248 1.48737 -1.58297
lowerneck -7.84506 4.77891 -6.23758
upperneck 8.6848 6.58542 5.71826
head 3.46101 3.3416 3.07245
rclavicle -5.59082e-014 1.49089e-014
rhumerus -13.3877 22.7092 -82.2715
rradius 136.872
rwrist -1.5782
rhand -32.1315 10.4875
rfingers 7.12502
rthumb -5.37571 -19.4243
lclavicle -5.59082e-014 1.49089e-014
lhumerus -0.876775 -21.2554 84.4901
lradius 135.655
lwrist 7.31619
lhand -19.4776 13.6482
lfingers 7.12502
lthumb 6.84415 43.5176
rfemur -8.2435 10.087 12.2917
rtibia 49.1909
rfoot -29.3153 -9.26924
rtoes -26.3568
lfemur -29.8479 9.67695 -6.28068
ltibia 63.6773
lfoot -8.43307 -7.05311
ltoes -26.4258
2825
root -4.98152 17.3609 2.5398 3.18628 -42.1917 0.758834
lowerback 11.5491 2.64113 -0.39112
upperback 2.68226 3.34313 -1.40238
thorax -3.5979 1.6359 -1.71857
lowerneck -7.46854 4.88446 -6.32577
upperneck 9.01746 6.72016 5.57464
head 3.4936 3.38994 3.04406
rclavicle 1.4561e-014 -3.43897e-014
rhumerus -13.9278 23.3385 -82.6435
rradius 136.884
rwrist -2.152
rhand -31.4899 10.4857
rfingers 7.12502
rthumb -4.75617 -19.4409
lclavicle 1.4561e-014 -3.43897e-014
lhumerus -1.69822 -20.8534 85.0071
lradius 135.505
lwrist 7.2402
lhand -19.4367 13.6764
lfingers 7.12502
lthumb 6.88362 43.5444
rfemur -8.09782 10.286 12.1889
rtibia 48.4985
rfoot -28.6329 -9.14162
rtoes -25.8713
lfemur -30.5312 10.2073 -5.81269
ltibia 64.6659
lfoot -5.18249 -8.56578
ltoes -24.6128
2826
root -4.9541 17.4186 2.57248 3.03136 -43.1902 0.752477
lowerback 11.5183 2.85325 -0.176064
upperback 2.63116 3.6539 -1.30973
thorax -3.61921 1.78829 -1.78687
lowerneck -7.28789 5.0612 -6.50872
upperneck 9.59195 6.9558 5.55367
head 3.61738 3.48988 3.08405
rclavicle 2.10712e-014 -1.80894e-014
rhumerus -14.3625 24.1125 -83.006
rradius 136.738
rwrist -2.57054
rhand -30.9777 10.5921
rfingers 7.12502
rthumb -4.26161 -19.345
lclavicle 2.10712e-014 -1.80894e-014
lhumerus -2.63598 -20.5439 85.5542
lradius 135.492
lwrist 7.02756
lhand -19.547 13.9772
lfingers 7.12502
lthumb 6.77716 43.8487
rfemur -7.88936 10.7097 11.8695
rtibia 47.7327
rfoot -27.8356 -8.78064
rtoes -26.1666
lfemur -30.8575 10.6896 -5.47651
ltibia 65.2091
lfoot -2.18112 -9.91175
ltoes -23.247
2827
root -4.92743 17.4865 2.6233 2.73043 -44.287 0.890208
lowerback 11.4584 3.05549 0.0250373
upperback 2.58234 3.94687 -1.29321
thorax -3.61684 1.93195 -1.92166
lowerneck -7.23961 5.30849 -6.3856
upperneck 10.398 7.27008 5.39027
head 3.8452 3.62898 3.04691
rclavicle 1.35671e-014 2.88238e-015
rhumerus -14.7335 25.0417 -83.5066
rradius 136.526
rwrist -2.62445
rhand -30.2309 8.66772
rfingers 7.12502
rthumb -3.54044 -21.2826
lclavicle 1.35671e-014 2.88238e-015
lhumerus -3.59284 -20.3743 85.9895
lradius 135.515
lwrist 6.61373
lhand -19.8846 13.9799
lfingers 7.12502
lthumb 6.45123 43.8617
rfemur -7.57969 11.2212 11.3679
rtibia 46.908
rfoot -26.9468 -8.24036
rtoes -26.174
lfemur -30.7915 11.087 -5.24794
ltibia 65.3077
lfoot 0.234226 -11.0111
ltoes -21.0855
